<?xml version="1.0" encoding="UTF-8"?>
<!-- Uploaded to: SVG Repo, www.svgrepo.com, Generator: SVG Repo Mixer Tools -->
<svg width="800px" height="800px" viewBox="0 0 24 24" version="1.1" xmlns="http://www.w3.org/2000/svg" xmlns:xlink="http://www.w3.org/1999/xlink">
    <title>Figma</title>
    <g id="Page-1" stroke="none" stroke-width="1" fill="none" fill-rule="evenodd">
        <g id="Figma">
            <rect id="Rectangle" fill-rule="nonzero" x="0" y="0" width="24" height="24">

</rect>
            <circle id="Oval" stroke="#0C0310" stroke-width="2" stroke-linecap="round" cx="15" cy="12" r="3">

</circle>
            <path d="M6,18 C6,16.3431 7.34315,15 9,15 L12,15 L12,18 C12,19.6569 10.6569,21 9,21 L9,21 C7.34315,21 6,19.6569 6,18 L6,18 Z" id="Path" stroke="#0C0310" stroke-width="2" stroke-linecap="round">

</path>
            <path d="M6,12 C6,10.3431 7.34315,9 9,9 L12,9 L12,15 L9,15 C7.34315,15 6,13.6569 6,12 L6,12 Z" id="Path" stroke="#0C0310" stroke-width="2" stroke-linecap="round">

</path>
            <path d="M6,6 C6,4.34315 7.34315,3 9,3 L12,3 L12,9 L9,9 C7.34315,9 6,7.65685 6,6 L6,6 Z" id="Path" stroke="#0C0310" stroke-width="2" stroke-linecap="round">

</path>
            <path d="M12,3 L15,3 C16.6569,3 18,4.34315 18,6 L18,6 C18,7.65685 16.6569,9 15,9 L12,9 L12,3 Z" id="Path" stroke="#0C0310" stroke-width="2" stroke-linecap="round">

</path>
        </g>
    </g>
</svg>