<svg width="134" height="102" viewBox="0 0 134 102" fill="none" xmlns="http://www.w3.org/2000/svg">
<path d="M56 1H74C75.1046 1 76 1.89543 76 3V99.5C76 100.605 75.1046 101.5 74 101.5H58C56.8954 101.5 56 100.605 56 99.5V25.25L22 49.4375V57.5V99.5C22 100.605 21.1046 101.5 20 101.5H3C1.89543 101.5 1 100.605 1 99.5V3C1 1.89543 1.89543 1 3 1H22L34 16.6912L56 1Z" fill="black"/>
<path d="M56 1H74C75.1046 1 76 1.89543 76 3V99.5C76 100.605 75.1046 101.5 74 101.5H58C56.8954 101.5 56 100.605 56 99.5V25.25M56 1V17.5V25.25M56 1L34 16.6912M22 25.25V41.375V49.4375M22 25.25V1M22 25.25L34 16.6912M56 25.25L22 49.4375M22 49.4375V57.5V99.5C22 100.605 21.1046 101.5 20 101.5H3C1.89543 101.5 1 100.605 1 99.5V3C1 1.89543 1.89543 1 3 1H22M22 1L34 16.6912" stroke="black"/>
<path d="M131.5 13.5H81C79.8954 13.5 79 14.3954 79 15.5V32C79 33.1046 79.8954 34 81 34H131.5C132.605 34 133.5 33.1046 133.5 32V15.5C133.5 14.3954 132.605 13.5 131.5 13.5Z" fill="black"/>
<path d="M131.5 101.5H81C79.8954 101.5 79 100.605 79 99.5V82C79 80.8954 79.8954 80 81 80H113V59C113 57.8954 113.895 57 115 57H131.5C132.605 57 133.5 57.8954 133.5 59V80V99.5C133.5 100.605 132.605 101.5 131.5 101.5Z" fill="black"/>
<path d="M133.5 80V99.5C133.5 100.605 132.605 101.5 131.5 101.5H81C79.8954 101.5 79 100.605 79 99.5V82C79 80.8954 79.8954 80 81 80H113M133.5 80V59C133.5 57.8954 132.605 57 131.5 57H115C113.895 57 113 57.8954 113 59V80M133.5 80H113M81 34H131.5C132.605 34 133.5 33.1046 133.5 32V15.5C133.5 14.3954 132.605 13.5 131.5 13.5H81C79.8954 13.5 79 14.3954 79 15.5V32C79 33.1046 79.8954 34 81 34Z" stroke="black"/>
</svg>
