<svg width="18" height="15" viewBox="0 0 18 15" fill="none" xmlns="http://www.w3.org/2000/svg">
<path d="M5.66082 14.6341C12.4536 14.6341 16.1683 9.00454 16.1683 4.12273C16.1683 3.96285 16.1651 3.80371 16.1579 3.64522C16.8807 3.12202 17.5045 2.47421 18 1.73217C17.3383 2.02646 16.6262 2.22454 15.8792 2.31384C16.6417 1.85649 17.227 1.13294 17.5032 0.270476C16.7783 0.700681 15.9852 1.00395 15.1582 1.16722C14.4843 0.449122 13.5248 0 12.4625 0C10.4231 0 8.76926 1.65446 8.76926 3.69384C8.76926 3.98378 8.80171 4.26571 8.86507 4.53622C5.79574 4.38172 3.07409 2.91165 1.25261 0.676317C0.924545 1.24011 0.751988 1.88087 0.752561 2.53317C0.752561 3.8149 1.40451 4.94638 2.39598 5.60835C1.80951 5.59044 1.23592 5.43197 0.723439 5.14628C0.72289 5.16179 0.72289 5.1769 0.72289 5.19347C0.72289 6.98261 1.99584 8.47643 3.68565 8.81491C3.36828 8.90138 3.04079 8.94509 2.71185 8.9449C2.4743 8.9449 2.24279 8.92152 2.01779 8.87832C2.48795 10.3462 3.85127 11.4144 5.46765 11.4442C4.20366 12.4353 2.61143 13.0256 0.880902 13.0256C0.586518 13.0258 0.292374 13.0088 0 12.9744C1.63441 14.0224 3.57494 14.6341 5.66082 14.6341Z" fill="white"/>
</svg>
